<svg viewBox="0 0 370 53" xmlns="http://www.w3.org/2000/svg"><path d="M324.4 6.8v45.6h-1.8L295.3 11V46c0 3.6 1.4 4.5 6.3 5.2v1h-28v-1c4.4-1 5.3-2 3.8-6.3l-3.4-9.3h-15.2l-3.6 10c-1 3.2.4 5 5.6 5.7v1H246v-1c2.7-.6 5.4-2.3 7.2-7l16-44h1l17 46c1.5 4 2 4.7 3.3 4.7 1.3 0 2.3-1 2.3-4.7V7c0-3.7-1.2-4.7-4.8-5.3v-1h11l23 34.5V7c0-3.7-1.5-4.6-6.4-5.3v-1h31v1c-5.4.7-6 1.7-5 4.5l9.4 21 9-20.5c1.4-3.2-.3-4.5-5.2-5v-1H369v1c-2.8.5-5 1.5-7 6L352 31v15.2c0 3.6 1.4 4.6 5.6 5.2v1h-19.7v-1c4.2-.6 5.6-1.6 5.6-5.2V31L332.6 6.8c-1.8-4-3.3-4.8-5.2-4.8-1.8 0-3 1.2-3 4.8zm-51 27l-7-19-6.8 19h13.8zM127 26.4c0 16.2 8 24.4 16.4 24.5 4.4 0 8.7-1.7 12-5 1.5-1.5 3-3.5 4-5.6l1 .2-1.6 10c-4.6 1.6-9.5 2.4-15 2.4-12.5 0-26.2-8.7-26.2-26.5S131.4 0 144.8 0c4.6 0 9.3.6 14.4 1.6v10.7h-1c-1.2-3.4-2.4-5.5-4-7-2-2-5.4-3.2-10.6-3.2-9 0-16.5 8.5-16.5 24.5zM77.3.7h35.3V13h-1c-1.5-7.8-4.6-10.3-10-10.3h-2.4v43.5c0 3.6 1.5 4.6 5.7 5.2v1H85v-1c4.2-.6 5.6-1.6 5.6-5.2V2.7H88c-5.2 0-8.3 2.5-9.8 10.3h-1V.7zM61.6 53c-4.3 0-9.5-.7-13.3-1.8v-10h-8v-1c3.6-.2 5-1 4-3.2l-2-5.3H32L30.2 36c-1 2.2 0 4 3.7 4.3v1H23.7v-1c1.8-.3 2.8-1 4.3-4.5L39.4 9h1l11.4 27.3c1.4 3.3 2.4 3.6 4 4v1h-6c1.2 2.7 2.6 4.8 4 6.2 2 2.2 5.2 3.4 8.8 3.4C68 51 73 47.4 73 42.5c0-4.2-1.6-7-6.7-9.8l-9-5c-5-3-8.2-8-8.2-13.7C49 5.4 55.5 0 64 0 68 0 71.8.6 75 1.6V13h-1C73 8.5 71.4 6 70 4.5 68 2.8 66 2 63 2c-5.8 0-9 3.5-9 7.7 0 3.7 1.6 6.4 6.8 9.2l9.7 5.3c5.5 3 8.6 8 8.6 13.8 0 10-9 15-17.4 15zM41.4 29.7l-4.2-10.4L33 29.7h8.4zm147.2 22.7l-1 .2-15-42-1.3 34.2c0 3.8 2 6 5.4 6.6v1H163v-1c3.6-.5 5.6-3 5.7-6.6L170 7c.2-3.6-1-4.7-5-5.3v-1h13L191.6 38 204.8.6h12v1c-3.8.5-5 1.7-5 5.3l1.6 39.4c0 3.4 2 5 6.3 5s5.7-1.6 5.7-5.2V6.8c0-3.6-1-4.6-4.7-5.2v-1h17.6c10 0 18.4 3.7 18.4 14.7S248.2 30 238.3 30c-1.3 0-2.8 0-4.5-.3V46c0 3.6 1.4 4.5 6.3 5.2v1h-40.7v-1c4-.5 5.5-1.6 5.4-5L203.5 11l-15 41.4zM238 28c6.7 0 9.7-3.6 9.7-12.6s-3-12.7-9.8-12.7h-4.2v25l4 .3zm-89.3 13.6c-6.6 0-15-6-15-15 0-9.3 8.3-15.2 15-15.2 6.7 0 15 6 15 15 0 9.3-8.3 15.2-15 15.2zm0-28c-4.2 0-7 3.3-7.2 13 0 9.5 3 13 7.2 13s7.2-3.5 7.2-13c0-9.7-3-13-7.3-13zM25 32.3c-1.5-5.6-3.2-6.7-6-6.8h-5.8v20.7c0 3.6 1.4 4.5 6.3 5.2v1H0v-1c3.6-.6 4.7-1.6 4.7-5.2V7c0-3.7-1-4.7-4.7-5.3v-1h33.2V13h-1c-1.5-7.8-4.6-10.3-10-10.3h-9v21h5.7c2.8 0 4.4-1.3 6-6.8h1v15.4h-1z" fill="#7F7F7F" fill-rule="evenodd"></path></svg>