<svg viewBox="0 0 268 68" xmlns="http://www.w3.org/2000/svg"><path d="M163.2 19.2c-4.3 0-7.7 1-11.2 3 0-10.2 0-19 .4-22.2l-20.6 4v1.8l2 .3c3 .5 4 2.2 4.3 6 .8 7.3.7 46.7 0 53 5.7 1.3 11.7 2.3 17.7 2.3 16.3 0 26-10 26-26 0-13-7.8-22-18.5-22zM156 64c-1.2 0-2.7-.2-3.5-.3-.3-4.5-.5-22.7-.5-38.6 2-.6 3-.7 4.8-.7 6.7 0 10.5 7.8 10.6 17.6 0 12.5-4.7 22-11.4 22zM54.4 19.7l-3.2.8C48.4 11.2 44 6 35.6 6H25c-.6 6-.8 15.8-.7 26h7.2c4.8-.2 6.8-3.8 8-9H42v22h-2.6c-1-5.4-3-9-8-9l-7-.3c0 7.8.2 14.5.5 18.5.4 5.8 2 8.4 6 9l3.8.4v2.6H0v-2.6l3-.4c4-.6 5.6-3.2 6-9 1-9.6 1-29.6 0-40.8-.4-5.8-2-8.3-6-9l-3-.3V1.6h54l.4 18.2zm17.3-1c15.4 0 23 10.4 23 24s-8.6 24.6-24 24.6c-15.3 0-23-10.5-23-24.2 0-13.3 8.6-24.3 24-24.3zm-.8 3c-7 0-8.8 9-8.8 21.3 0 11.8 3 21.3 9.3 21.3 6.8 0 8.7-9.2 8.7-21.3 0-11.8-3-21.4-9.3-21.4zm114.6 21.7c0-12.7 8-24.7 24-24.7 12.8 0 19 9.6 19 22h-28.8c-.3 11.4 5.5 19.8 16.5 19.8 4.8 0 7.4-1.2 10.4-3.5l1.3 1.6c-3.2 4.5-9.8 8.7-18.7 8.7-14 0-23.7-10-23.7-24zm14.3-6l14.4-.2c0-6.4-1-15.5-6.2-15.5s-8 8.6-8.3 15.8zm65.6-4.4l-2.3.6c-2.5-8-6.4-11.6-12-11.6-3.7 0-6.3 2.8-6.3 6.8s3 6.2 11.7 9.6c8 3 11.2 6.6 11.2 13.2 0 9.7-7.6 15.7-19.8 15.7-6 0-12.4-1.3-16.3-3l-.5-13.3 2.4-.7c3.2 9.5 7.6 13 13.4 13 5 0 7.7-3.6 7.7-7.4 0-3.7-2-6-9.8-8.7-7.3-2.6-12.6-5.8-12.6-14 0-8 7-14.6 18.6-14.6 5.4 0 10.5 1 14 2.5l.4 11.8zM130 32.6c-6.3-4.2-13-2.3-14.4 0-.5 7.5-.4 19 0 24.8.4 3.8 1.5 5.5 4.4 6l3.7.2v2.6H95.2v-2.6l2-.3c3-.4 4-2 4.3-6 .6-6.2.6-19.3 0-26.7-.3-3.8-1.5-5.5-4.3-6l-2-.2v-1.8l20.5-4-.2 10.7c4.8-11 14.2-12.4 19.4-9.3l-5 12.6z" fill="#7F7F7F" fill-rule="nonzero"></path></svg>