<svg viewBox="0 0 108 82" xmlns="http://www.w3.org/2000/svg"><g fill-rule="nonzero" fill="#7F7F7F"><path d="M20 63.3h-6.6v17.4H7.6V63.3H.8v-5H20v5M32.2 57.8c7 0 11 5.2 11 11.7 0 6.5-4 11.7-11 11.7s-11-5.2-11-11.7c0-6.5 4-11.7 11-11.7zm0 18.4c3.8 0 5.2-3.3 5.2-6.7 0-3.4-1.4-6.7-5.2-6.7-3.8 0-5.2 3.3-5.2 6.7 0 3.4 1.5 6.7 5.2 6.7zM45.8 58.3h9.6c7 0 11 4.2 11 11 0 7.4-4.2 11.4-11 11.4h-9.6V58.3zm6 17.4h2.7c4.4 0 6.2-1.8 6.2-6.3 0-4-2.2-6-6.2-6h-2.8v12.3zM75 58.3h6l8.4 22.4h-6l-1.5-4h-8l-1.3 4h-6L75 58.3zm.5 14h5l-2.4-7.8-2.5 8zM99.6 72.4v8.4h-5.8v-8.4l-8.2-14h6.6l4.5 9 4.5-9h6.6M54.3 37.6C45.3 37.6 38 45 38 54h10.4c0-3.3 2.6-6 6-6 3 0 5.8 2.6 5.8 6h10.4c0-9-7.3-16.4-16.3-16.4z"></path><path d="M54.3 25.3c-15.8 0-28.7 13-28.7 28.7H36c0-10 8.2-18.2 18.2-18.2S72.4 44 72.4 54H83c0-16-13-28.7-28.7-28.7z"></path><path d="M54.3 13c-22.6 0-41 18.3-41 41h10.4c0-17 13.7-30.7 30.6-30.7C71.3 23.3 85 37 85 54h10.3c0-22.7-18.4-41-41-41z"></path><path d="M54.3.5C24.8.5 1 24.5 1 54h10.3c0-23.8 19.3-43 43-43s43 19.2 43 43h10.4c0-29.5-24-53.5-53.4-53.5z"></path></g></svg>