<svg xmlns="http://www.w3.org/2000/svg" xmlns:xlink="http://www.w3.org/1999/xlink" width="236" height="47" viewBox="0 0 236 47"><style>.a{fill:#000;}.b{fill:#A1308C;}.c{fill:#90DB6E;}</style><defs><polygon points="0.15 30.52 7.41 30.52 7.41 0.12 0.15 0.12 0.15 30.52"/></defs><g style="fill:none;stroke-width:1;stroke:none"><g transform="translate(-135 -20)translate(-1 -53)translate(136 73)"><path d="M6.02 17.67C10.3 17.67 12.03 19.5 12.03 23.44 12.03 27.39 10.3 29.22 6.02 29.22L4.86 29.22C4.4 29.22 4.14 29.46 4.14 29.94L4.14 33.79C4.14 34.27 3.9 34.51 3.42 34.51L0.72 34.51C0.26 34.51 0 34.24 0 33.79L0 18.41C0 17.93 0.24 17.69 0.72 17.67L6.02 17.67ZM6.16 25.08C7.32 25.08 7.89 24.93 7.89 23.44 7.89 21.95 7.32 21.81 6.16 21.81L4.86 21.81C4.4 21.81 4.14 22.05 4.14 22.53L4.14 24.36C4.14 24.81 4.4 25.08 4.86 25.08L6.16 25.08Z" class="a"/><path d="M20.94 17.67C21.42 17.67 21.66 17.91 21.66 18.39L21.66 27.82C21.66 29.67 21.78 30.8 23.56 30.8 25.34 30.8 25.46 29.67 25.46 27.82L25.46 18.39C25.46 17.91 25.72 17.67 26.18 17.67L28.88 17.67C29.36 17.67 29.6 17.91 29.6 18.39L29.6 29.1C29.6 30.68 29.26 34.94 23.56 34.94 17.85 34.94 17.52 30.68 17.52 29.1L17.52 18.39C17.52 17.91 17.78 17.67 18.24 17.67L20.94 17.67Z" class="a"/><path d="M48.38 33.21C48.72 33.83 48.33 34.51 47.59 34.51L44.84 34.51C44.6 34.51 44.38 34.39 44.29 34.17L41.79 29.34C41.74 29.26 41.66 29.22 41.59 29.22L40.63 29.22C40.2 29.22 39.88 29.53 39.88 29.96L39.88 33.76C39.88 34.2 39.57 34.51 39.14 34.51L36.44 34.51C36.01 34.51 35.7 34.2 35.7 33.76L35.7 18.41C35.7 17.98 36.01 17.67 36.44 17.67L41.71 17.67C46 17.67 47.73 19.5 47.73 23.44 47.73 25.68 47.18 27.24 45.9 28.16 45.8 28.23 45.78 28.35 45.83 28.47L48.38 33.21ZM40.63 21.81C40.2 21.81 39.88 22.12 39.88 22.55L39.88 24.33C39.88 24.76 40.2 25.08 40.63 25.08L41.86 25.08C43.01 25.08 43.59 24.93 43.59 23.44 43.59 21.95 43.01 21.81 41.86 21.81L40.63 21.81Z" class="a"/><path d="M60.5 17.67C64.78 17.67 66.51 19.5 66.51 23.44 66.51 27.39 64.78 29.22 60.5 29.22L59.34 29.22C58.88 29.22 58.62 29.46 58.62 29.94L58.62 33.79C58.62 34.27 58.38 34.51 57.9 34.51L55.2 34.51C54.74 34.51 54.48 34.24 54.48 33.79L54.48 18.41C54.48 17.93 54.72 17.69 55.2 17.67L60.5 17.67ZM60.64 25.08C61.8 25.08 62.37 24.93 62.37 23.44 62.37 21.95 61.8 21.81 60.64 21.81L59.34 21.81C58.88 21.81 58.62 22.05 58.62 22.53L58.62 24.36C58.62 24.81 58.88 25.08 59.34 25.08L60.64 25.08Z" class="a"/><path d="M75.56 17.67C76.04 17.67 76.28 17.91 76.28 18.39L76.28 29.65C76.28 30.11 76.55 30.37 77 30.37L82.37 30.37C82.85 30.37 83.09 30.61 83.09 31.09L83.09 33.79C83.09 34.27 82.85 34.51 82.37 34.51L72.86 34.51C72.41 34.51 72.14 34.24 72.14 33.79L72.14 18.39C72.14 17.91 72.41 17.67 72.86 17.67L75.56 17.67Z" class="a"/><path d="M99.4 17.67C99.88 17.67 100.12 17.91 100.12 18.39L100.12 21.08C100.12 21.54 99.88 21.81 99.4 21.81L93.58 21.81C93.12 21.81 92.85 22.05 92.85 22.53L92.85 23.3C92.85 23.75 93.12 24.02 93.58 24.02L97.31 24.02C97.79 24.02 98.03 24.26 98.03 24.74L98.03 27.44C98.03 27.89 97.79 28.16 97.31 28.16L93.58 28.16C93.12 28.16 92.85 28.4 92.85 28.88L92.85 29.65C92.85 30.11 93.12 30.37 93.58 30.37L99.4 30.37C99.88 30.37 100.12 30.61 100.12 31.09L100.12 33.79C100.12 34.27 99.88 34.51 99.4 34.51L89.29 34.51C88.83 34.51 88.57 34.24 88.57 33.79L88.57 18.39C88.57 17.91 88.83 17.67 89.29 17.67L99.4 17.67Z" class="a"/><path d="M130.61 23.08C130.61 21.49 130.95 17.23 136.65 17.23 141.78 17.23 142.58 20.67 142.67 22.53 142.7 22.86 142.48 23.13 142.14 23.2L139.47 23.8C138.97 23.9 138.58 23.56 138.51 23.06 138.39 22 137.95 21.37 136.65 21.37 134.87 21.37 134.75 22.5 134.75 24.36L134.75 27.82C134.75 29.67 134.87 30.8 136.65 30.8 137.98 30.8 138.34 30.18 138.48 29.07 138.56 28.57 138.94 28.25 139.42 28.37L142.14 28.98C142.48 29.05 142.7 29.31 142.67 29.67 142.58 31.5 141.78 34.94 136.65 34.94 130.95 34.94 130.61 30.68 130.61 29.1L130.61 23.08Z" class="a"/><path d="M161.04 33.69C161.04 34.22 160.8 34.51 160.32 34.51L157.63 34.51C157.17 34.51 156.9 34.27 156.9 33.79L156.9 31.69C156.9 31.21 156.66 30.97 156.18 30.97L154.11 30.97C153.66 30.97 153.39 31.21 153.39 31.69L153.39 33.79C153.39 34.27 153.15 34.51 152.67 34.51L149.97 34.51C149.52 34.51 149.25 34.22 149.25 33.69L149.25 23.49C149.25 20.46 149.73 17.23 155.15 17.23 160.56 17.23 161.04 20.46 161.04 23.49L161.04 33.69ZM156.9 23.49C156.9 22.33 156.74 21.76 155.15 21.76 153.56 21.76 153.39 22.33 153.39 23.49L153.39 26.11C153.39 26.57 153.66 26.83 154.11 26.83L156.18 26.83C156.66 26.81 156.9 26.57 156.9 26.09L156.9 23.49Z" class="a"/><path d="M180.6 33.21C180.94 33.83 180.55 34.51 179.81 34.51L177.06 34.51C176.82 34.51 176.61 34.39 176.51 34.17L174.01 29.34C173.96 29.26 173.89 29.22 173.81 29.22L172.85 29.22C172.42 29.22 172.11 29.53 172.11 29.96L172.11 33.76C172.11 34.2 171.79 34.51 171.36 34.51L168.66 34.51C168.23 34.51 167.92 34.2 167.92 33.76L167.92 18.41C167.92 17.98 168.23 17.67 168.66 17.67L173.93 17.67C178.22 17.67 179.95 19.5 179.95 23.44 179.95 25.68 179.4 27.24 178.12 28.16 178.03 28.23 178 28.35 178.05 28.47L180.6 33.21ZM172.85 21.81C172.42 21.81 172.11 22.12 172.11 22.55L172.11 24.33C172.11 24.76 172.42 25.08 172.85 25.08L174.08 25.08C175.23 25.08 175.81 24.93 175.81 23.44 175.81 21.95 175.23 21.81 174.08 21.81L172.85 21.81Z" class="a"/><path d="M199.08 33.21C199.42 33.83 199.04 34.51 198.29 34.51L195.55 34.51C195.31 34.51 195.09 34.39 194.99 34.17L192.49 29.34C192.44 29.26 192.37 29.22 192.3 29.22L191.33 29.22C190.9 29.22 190.59 29.53 190.59 29.96L190.59 33.76C190.59 34.2 190.27 34.51 189.84 34.51L187.15 34.51C186.71 34.51 186.4 34.2 186.4 33.76L186.4 18.41C186.4 17.98 186.71 17.67 187.15 17.67L192.42 17.67C196.7 17.67 198.43 19.5 198.43 23.44 198.43 25.68 197.88 27.24 196.6 28.16 196.51 28.23 196.48 28.35 196.53 28.47L199.08 33.21ZM191.33 21.81C190.9 21.81 190.59 22.12 190.59 22.55L190.59 24.33C190.59 24.76 190.9 25.08 191.33 25.08L192.56 25.08C193.72 25.08 194.29 24.93 194.29 23.44 194.29 21.95 193.72 21.81 192.56 21.81L191.33 21.81Z" class="a"/><path d="M216.61 29.1C216.61 30.68 216.27 34.94 210.57 34.94 204.87 34.94 204.53 30.68 204.53 29.1L204.53 23.08C204.53 21.49 204.87 17.23 210.57 17.23 216.27 17.23 216.61 21.49 216.61 23.08L216.61 29.1ZM212.47 24.36C212.47 22.5 212.35 21.37 210.57 21.37 208.79 21.37 208.67 22.5 208.67 24.36L208.67 27.82C208.67 29.67 208.79 30.8 210.57 30.8 212.35 30.8 212.47 29.67 212.47 27.82L212.47 24.36Z" class="a"/><g class="a"><path d="M226.07 22.53C226.07 22.05 225.83 21.81 225.35 21.81L221.98 21.81C221.52 21.81 221.26 21.54 221.26 21.08L221.26 18.39C221.26 17.91 221.52 17.67 221.98 17.67L234.3 17.67C234.78 17.67 235.02 17.91 235.02 18.39L235.02 21.08C235.02 21.54 234.78 21.81 234.3 21.81L230.93 21.81C230.48 21.81 230.21 22.05 230.21 22.53L230.21 33.79C230.21 34.24 229.97 34.51 229.49 34.51L226.79 34.51C226.34 34.51 226.07 34.24 226.07 33.79L226.07 22.53Z"/></g><g transform="translate(111 0)"><g transform="translate(1.987774 15.914489)"><mask fill="white"><use xlink:href="#path-1"/></mask><path d="M1.72 26.91C2.01 29.49 2.71 30.51 3.21 30.52 3.74 30.53 4.36 29.32 4.68 27.73L5.53 22.14C6.09 19.26 6.34 15.7 6.63 12.69 6.64 12.62 6.64 12.48 6.66 12.34L6.7 12.04C6.71 11.98 6.71 11.94 6.72 11.9 6.87 10.21 6.91 8.5 7.15 6.82 7.37 5.29 7.31 5.88 7.39 4.42 7.46 3.3 7.28 2.05 6.63 1.3 6.13 0.72 5.41 0.56 4.75 0.43 4.17 0.32 3.6 0.14 3.02 0.12 2.02 0.08 0.91 0.38 0.44 1.41 0.05 2.25 0.16 3.33 0.18 3.59 0.37 6.15 0.21 4.09 0.39 6.31L0.5 8.41C0.54 9.03 0.57 9.64 0.61 10.25 0.69 11.46 0.77 12.67 0.85 13.87 0.89 14.42 0.92 14.97 0.96 15.52L1.72 26.91Z" mask="url(#mask-2)" class="b"/></g><path d="M7.24 39.36C7.34 38.6 7.47 37.77 7.51 37.01 7.53 36.74 7.55 36.78 7.56 36.62" class="b"/><path d="M5.93 12.22C5.97 12.36 6.05 12.68 6.1 12.81 6.1 12.81 6.57 13.88 6.41 14.83 5.89 16.17 4.19 12.32 4.04 12.03 3.51 11 3.71 11.66 3.22 10.59 2.64 9.35 2 8.15 1.44 6.93 1.27 6.57 0.67 5.79 0.83 5.31 1.04 4.66 1.88 5.23 1.93 4.52 1.95 4.19 1.43 3.4 1.29 3.1 1.1 2.68 0.9 2.24 0.72 1.83 0.43 1.15 0.02 0.61 0.78 0.27 1.13 0.11 1.6 0.11 1.97 0.06 2.39 0.01 3.88-0.12 4.19 0.26 4.52 0.66 4.65 1.76 4.81 2.32 5.19 3.54 5.56 4.75 5.89 6 6.13 6.9 5.92 7.08 5.22 7.25 4.47 7.43 4.63 7.61 4.86 8.51 5.22 9.91 5.93 12.22 5.93 12.22" class="c"/><path d="M7.01 9.65C6.98 9.74 6.9 9.95 6.86 10.03 6.86 10.03 6.48 10.71 6.49 11.36 6.67 12.31 8.03 9.87 8.15 9.69 8.56 9.05 8.38 9.47 8.77 8.79 9.22 8.01 9.71 7.27 10.16 6.5 10.29 6.27 10.72 5.8 10.67 5.46 10.61 5.01 10.06 5.31 10.09 4.84 10.11 4.61 10.49 4.12 10.6 3.93 10.76 3.67 10.91 3.39 11.06 3.13 11.29 2.7 11.58 2.37 11.17 2.08 10.97 1.94 10.7 1.9 10.48 1.84 10.24 1.76 9.37 1.55 9.15 1.77 8.92 2.01 8.74 2.74 8.59 3.1 8.26 3.89 7.92 4.67 7.61 5.48 7.39 6.06 7.49 6.2 7.89 6.37 8.32 6.56 8.21 6.67 7.99 7.26 7.65 8.16 7.01 9.65 7.01 9.65" class="c"/></g></g></g></svg>
